<svg xmlns="http://www.w3.org/2000/svg" viewBox="0 0 19 19" class="design-iconfont">
  <g fill="#191919" fill-rule="nonzero">
    <path d="M6.11504464,10.2855341 L6.11504463,10.2855341 C5.9880934,10.2855341 5.8662929,10.2353036 5.77625713,10.1458054 L3.63626453,8.0039145 L3.63626449,8.00391445 C3.45237872,7.81409755 3.4571852,7.51115208 3.64700146,7.3272663 C3.83256863,7.14749627 4.12733208,7.14749148 4.31290403,7.32725802 L6.45288067,9.46822372 L6.45288067,9.46822372 C6.63998885,9.65486608 6.64036533,9.95784984 6.45372328,10.1449564 C6.36397577,10.2349277 6.24212646,10.2855341 6.11504586,10.2855341 L6.11504464,10.2855341 Z" transform="translate(2.25 1.5)"/>
    <path d="M6.11504464,10.2855242 L6.11504464,10.2855242 C5.85076318,10.2854364 5.63657887,10.0711372 5.63664904,9.80685571 C5.63664904,9.68025623 5.68688309,9.55882823 5.7762573,9.46916415 L9.79585025,5.4495712 L9.79585024,5.44957121 C9.9859495,5.26597737 10.288887,5.27124966 10.4724824,5.46134791 C10.6515777,5.64678745 10.6515745,5.94077561 10.4724741,6.12621196 L6.45288116,10.145789 L6.45288116,10.145789 C6.36307957,10.2350713 6.24166082,10.28529 6.11502848,10.2855242 L6.11504464,10.2855242 Z" transform="translate(2.25 1.5)"/>
    <path d="M7.05293849,15.4535979 L7.0529385,15.4535979 C6.78815135,15.4503172 6.57615891,15.2330055 6.57940119,14.9682183 C6.58223841,14.7422531 6.74243634,14.5489171 6.96394443,14.5041752 C9.60824262,14.001744 12.5875587,10.7286392 12.7990407,8.74274747 L12.796165,3.356506 C9.67236731,2.94019266 6.90840961,1.10170344 6.7868677,1.02034581 L6.7868677,1.02034581 C6.57176772,0.866798934 6.52186997,0.567951173 6.67541669,0.352852787 C6.82272407,0.146493167 7.10541884,0.0908509351 7.31994453,0.225989614 C7.34960337,0.246102494 10.2686159,2.18316685 13.3167989,2.45112057 L13.3167989,2.45112057 C13.5637767,2.47294164 13.7532075,2.6797977 13.7532075,2.92773745 L13.7532075,8.79347841 C13.4746901,11.4425783 10.0168667,14.8965603 7.14384197,15.4440014 L7.14384202,15.4440014 C7.11389428,15.4499717 7.08346063,15.4531729 7.052926,15.4535979 L7.05293849,15.4535979 Z" transform="translate(2.25 1.5)"/>
    <path d="M7.05485279,15.4497667 L7.05485281,15.4497667 C7.02431562,15.4493098 6.99388101,15.4461091 6.96391955,15.4401904 C4.09091073,14.8946589 0.633100137,11.4378102 0.356516127,8.83846608 L0.354576306,2.92391055 C0.354576306,2.67508544 0.544066184,2.46835891 0.790984971,2.44729367 C3.84588391,2.17840673 6.75721057,0.241305683 6.78688218,0.221237469 L6.78688214,0.221237488 C7.01318395,0.0837218905 7.3081165,0.155697224 7.44563162,0.381998554 C7.57442041,0.593938349 7.52033451,0.869116945 7.32091166,1.01654653 C7.19936656,1.09788293 4.43541205,2.93543782 1.31161438,3.35173361 L1.31161438,8.78776276 C1.52022968,10.7238668 4.499541,13.9969637 7.14383919,14.50036 L7.1438392,14.50036 C7.40339554,14.5528342 7.57126821,14.8057844 7.51879414,15.0653408 C7.47402544,15.2867819 7.28074972,15.4469304 7.05484513,15.4497667 L7.05485279,15.4497667 Z" transform="translate(2.25 1.5)"/>
  </g>
</svg>
