<svg xmlns="http://www.w3.org/2000/svg" viewBox="0 0 19 19" class="design-iconfont">
  <g stroke="#191919" fill="none" fill-rule="evenodd">
    <path d="M9.00001153,2.08413535 C6.58053924,2.08413535 4.61252664,4.04292528 4.61252664,6.45037915 L4.61252664,6.45036984 C4.61044084,7.33670611 4.88123193,8.2022034 5.38812468,8.92928805 C5.4136003,8.97245506 5.43907593,9.01420689 5.46879748,9.05525112 L8.67165181,13.2573138 L8.67165183,13.2573138 C8.75463598,13.3518562 8.87420967,13.4062305 9.00000475,13.4066288 C9.12384493,13.4066288 9.24131523,13.3528469 9.34321798,13.2396222 L12.5305059,9.05453567 C12.5623505,9.01349156 12.5892414,8.96749393 12.6033946,8.94131059 L12.6033947,8.94131052 C13.114814,8.21170589 13.3886318,7.34206265 13.3874817,6.45106705 C13.3874817,4.04290829 11.4194893,2.08482325 9.00000527,2.08482325 L9.00001153,2.08413535 Z M9.00001153,8.01288367 L9.00001147,8.01288367 C8.13660301,8.01405392 7.43527982,7.31590112 7.43255424,6.45249383 C7.43255424,5.59269089 8.13596508,4.89281391 9.00001147,4.89281391 C9.86406021,4.89281391 10.5674687,5.59339343 10.5674687,6.45249383 L10.5674687,6.45249625 C10.5647356,7.31617844 9.86298407,8.01444357 8.99929482,8.01288367 L9.00001153,8.01288367 Z" transform="translate(.25 .042467)"/>
    <path d="M5.57741177,12.0752551 C3.83417,12.4466907 2.68010129,13.0935989 2.68010129,13.829492 C2.68010129,14.9817638 5.50961632,15.9158647 9,15.9158647 C12.4903837,15.9158647 15.3198987,14.9817638 15.3198987,13.829492 C15.3198987,13.0861286 14.1422804,12.4335659 12.369318,12.0640287" stroke-linecap="round" transform="translate(.25 .042467)"/>
  </g>
</svg>
